<!-- <katagui> {"export_date":"2025-02-14","sgf":"(;FF[4]SZ[19]\nSO[katagui.baduk.club]\nPB[]\nPW[]\nRE[]\nKM[6.5]\nDT[2025-02-14]\n;B[pd];W[dp];B[pq];W[dc];B[ce];W[dh];B[ed];W[dd];B[de];W[ee];B[fd];W[ef];B[bc];W[fb];B[gc];W[bb];B[bd];W[cg];B[eg];W[df];B[cb];W[db];B[ab];W[ic];B[id])"} </katagui> -->
<svg xmlns="http://www.w3.org/2000/svg" width="360" height="360"><rect width="360" height="360" fill="#cc9966"/><line x1="30" y1="30" x2="30" y2="345" stroke="#000" stroke-width="2.1"/><line x1="60" y1="30" x2="60" y2="345" stroke="#000" stroke-width="1.2"/><line x1="90" y1="30" x2="90" y2="345" stroke="#000" stroke-width="1.2"/><line x1="120" y1="30" x2="120" y2="345" stroke="#000" stroke-width="1.2"/><line x1="150" y1="30" x2="150" y2="345" stroke="#000" stroke-width="1.2"/><line x1="180" y1="30" x2="180" y2="345" stroke="#000" stroke-width="1.2"/><line x1="210" y1="30" x2="210" y2="345" stroke="#000" stroke-width="1.2"/><line x1="240" y1="30" x2="240" y2="345" stroke="#000" stroke-width="1.2"/><line x1="270" y1="30" x2="270" y2="345" stroke="#000" stroke-width="1.2"/><line x1="300" y1="30" x2="300" y2="345" stroke="#000" stroke-width="1.2"/><line x1="330" y1="30" x2="330" y2="345" stroke="#000" stroke-width="1.2"/><line x1="28.95" y1="30" x2="345" y2="30" stroke="#000" stroke-width="2.1"/><line x1="28.95" y1="60" x2="345" y2="60" stroke="#000" stroke-width="1.2"/><line x1="28.95" y1="90" x2="345" y2="90" stroke="#000" stroke-width="1.2"/><line x1="28.95" y1="120" x2="345" y2="120" stroke="#000" stroke-width="1.2"/><line x1="28.95" y1="150" x2="345" y2="150" stroke="#000" stroke-width="1.2"/><line x1="28.95" y1="180" x2="345" y2="180" stroke="#000" stroke-width="1.2"/><line x1="28.95" y1="210" x2="345" y2="210" stroke="#000" stroke-width="1.2"/><line x1="28.95" y1="240" x2="345" y2="240" stroke="#000" stroke-width="1.2"/><line x1="28.95" y1="270" x2="345" y2="270" stroke="#000" stroke-width="1.2"/><line x1="28.95" y1="300" x2="345" y2="300" stroke="#000" stroke-width="1.2"/><line x1="28.95" y1="330" x2="345" y2="330" stroke="#000" stroke-width="1.2"/><circle cx="120" cy="120" r="3" fill="#000"/><circle cx="120" cy="300" r="3" fill="#000"/><circle cx="300" cy="120" r="3" fill="#000"/><circle cx="300" cy="300" r="3" fill="#000"/><circle cx="30" cy="60" r="14.1" fill="#000000" stroke="black" stroke-width="0.8999999999999999"/><circle cx="60" cy="90" r="14.1" fill="#000000" stroke="black" stroke-width="0.8999999999999999"/><circle cx="60" cy="120" r="14.1" fill="#000000" stroke="black" stroke-width="0.8999999999999999"/><circle cx="90" cy="60" r="14.1" fill="#000000" stroke="black" stroke-width="0.8999999999999999"/><circle cx="90" cy="150" r="14.1" fill="#000000" stroke="black" stroke-width="0.8999999999999999"/><circle cx="120" cy="150" r="14.1" fill="#000000" stroke="black" stroke-width="0.8999999999999999"/><circle cx="150" cy="120" r="14.1" fill="#000000" stroke="black" stroke-width="0.8999999999999999"/><circle cx="150" cy="210" r="14.1" fill="#000000" stroke="black" stroke-width="0.8999999999999999"/><circle cx="180" cy="120" r="14.1" fill="#000000" stroke="black" stroke-width="0.8999999999999999"/><circle cx="210" cy="90" r="14.1" fill="#000000" stroke="black" stroke-width="0.8999999999999999"/><circle cx="270" cy="120" r="14.1" fill="#000000" stroke="black" stroke-width="0.8999999999999999"/><circle cx="60" cy="60" r="14.1" fill="white" stroke="black" stroke-width="0.8999999999999999"/><circle cx="90" cy="210" r="14.1" fill="white" stroke="black" stroke-width="0.8999999999999999"/><circle cx="120" cy="60" r="14.1" fill="white" stroke="black" stroke-width="0.8999999999999999"/><circle cx="120" cy="90" r="14.1" fill="white" stroke="black" stroke-width="0.8999999999999999"/><circle cx="120" cy="120" r="14.1" fill="white" stroke="black" stroke-width="0.8999999999999999"/><circle cx="120" cy="180" r="14.1" fill="white" stroke="black" stroke-width="0.8999999999999999"/><circle cx="120" cy="240" r="14.1" fill="white" stroke="black" stroke-width="0.8999999999999999"/><circle cx="150" cy="150" r="14.1" fill="white" stroke="black" stroke-width="0.8999999999999999"/><circle cx="150" cy="180" r="14.1" fill="white" stroke="black" stroke-width="0.8999999999999999"/><circle cx="180" cy="60" r="14.1" fill="white" stroke="black" stroke-width="0.8999999999999999"/><circle cx="270" cy="90" r="14.1" fill="white" stroke="black" stroke-width="0.8999999999999999"/><circle cx="270" cy="120" r="7.5" stroke="white" stroke-width="1.7999999999999998" fill="none"/></svg>