<!-- <katagui>
{"export_date":"2025-04-22","sgf":"(;FF[4]SZ[19]\nSO[katagui.baduk.club]\nPB[]\nPW[]\nRE[]\nKM[6.5]\nDT[2025-04-22]\n;B[pd];W[dp];B[pp];W[dc];B[cq];W[cp];B[dq];W[ep];B[fr];W[de];B[gq];W[bq];B[br];W[gp];B[hp];W[fq];B[bp];W[gr];B[hq];W[bo];B[aq];W[er];B[hr];W[go];B[gs];W[eq];B[ho])"}
</katagui> -->
<!-- <caption>
B+. W 4 is wrong.
</caption> -->
<svg xmlns="http://www.w3.org/2000/svg" width="390" height="390">
    <rect width="390" height="390" fill="#cc9966" />
    <line x1="30" y1="15" x2="30" y2="360" stroke="#000" stroke-width="2.1" />
    <line x1="60" y1="15" x2="60" y2="360" stroke="#000" stroke-width="1.2" />
    <line x1="90" y1="15" x2="90" y2="360" stroke="#000" stroke-width="1.2" />
    <line x1="120" y1="15" x2="120" y2="360" stroke="#000" stroke-width="1.2" />
    <line x1="150" y1="15" x2="150" y2="360" stroke="#000" stroke-width="1.2" />
    <line x1="180" y1="15" x2="180" y2="360" stroke="#000" stroke-width="1.2" />
    <line x1="210" y1="15" x2="210" y2="360" stroke="#000" stroke-width="1.2" />
    <line x1="240" y1="15" x2="240" y2="360" stroke="#000" stroke-width="1.2" />
    <line x1="270" y1="15" x2="270" y2="360" stroke="#000" stroke-width="1.2" />
    <line x1="300" y1="15" x2="300" y2="360" stroke="#000" stroke-width="1.2" />
    <line x1="330" y1="15" x2="330" y2="360" stroke="#000" stroke-width="1.2" />
    <line x1="360" y1="15" x2="360" y2="360" stroke="#000" stroke-width="1.2" />
    <line x1="28.95" y1="30" x2="375" y2="30" stroke="#000" stroke-width="1.2" />
    <line x1="28.95" y1="60" x2="375" y2="60" stroke="#000" stroke-width="1.2" />
    <line x1="28.95" y1="90" x2="375" y2="90" stroke="#000" stroke-width="1.2" />
    <line x1="28.95" y1="120" x2="375" y2="120" stroke="#000" stroke-width="1.2" />
    <line x1="28.95" y1="150" x2="375" y2="150" stroke="#000" stroke-width="1.2" />
    <line x1="28.95" y1="180" x2="375" y2="180" stroke="#000" stroke-width="1.2" />
    <line x1="28.95" y1="210" x2="375" y2="210" stroke="#000" stroke-width="1.2" />
    <line x1="28.95" y1="240" x2="375" y2="240" stroke="#000" stroke-width="1.2" />
    <line x1="28.95" y1="270" x2="375" y2="270" stroke="#000" stroke-width="1.2" />
    <line x1="28.95" y1="300" x2="375" y2="300" stroke="#000" stroke-width="1.2" />
    <line x1="28.95" y1="330" x2="375" y2="330" stroke="#000" stroke-width="1.2" />
    <line x1="28.95" y1="360" x2="375" y2="360" stroke="#000" stroke-width="2.1" />
    <circle cx="120" cy="90" r="3" fill="#000" />
    <circle cx="120" cy="270" r="3" fill="#000" />
    <circle cx="300" cy="90" r="3" fill="#000" />
    <circle cx="300" cy="270" r="3" fill="#000" />
    <circle cx="30" cy="300" r="14.1" fill="#000000" stroke="black"
        stroke-width="0.8999999999999999" />
    <circle cx="60" cy="270" r="14.1" fill="#000000" stroke="black"
        stroke-width="0.8999999999999999" />
    <circle cx="60" cy="330" r="14.1" fill="#000000" stroke="black"
        stroke-width="0.8999999999999999" />
    <circle cx="90" cy="300" r="14.1" fill="#000000" stroke="black"
        stroke-width="0.8999999999999999" />
    <circle cx="120" cy="300" r="14.1" fill="#000000" stroke="black"
        stroke-width="0.8999999999999999" />
    <circle cx="180" cy="330" r="14.1" fill="#000000" stroke="black"
        stroke-width="0.8999999999999999" />
    <circle cx="210" cy="300" r="14.1" fill="#000000" stroke="black"
        stroke-width="0.8999999999999999" />
    <circle cx="210" cy="360" r="14.1" fill="#000000" stroke="black"
        stroke-width="0.8999999999999999" />
    <circle cx="240" cy="240" r="14.1" fill="#000000" stroke="black"
        stroke-width="0.8999999999999999" />
    <circle cx="240" cy="270" r="14.1" fill="#000000" stroke="black"
        stroke-width="0.8999999999999999" />
    <circle cx="240" cy="300" r="14.1" fill="#000000" stroke="black"
        stroke-width="0.8999999999999999" />
    <circle cx="240" cy="330" r="14.1" fill="#000000" stroke="black"
        stroke-width="0.8999999999999999" />
    <circle cx="60" cy="240" r="14.1" fill="white" stroke="black" stroke-width="0.8999999999999999" />
    <circle cx="90" cy="270" r="14.1" fill="white" stroke="black" stroke-width="0.8999999999999999" />
    <circle cx="120" cy="270" r="14.1" fill="white" stroke="black" stroke-width="0.8999999999999999" />
    <circle cx="150" cy="270" r="14.1" fill="white" stroke="black" stroke-width="0.8999999999999999" />
    <circle cx="150" cy="300" r="14.1" fill="white" stroke="black" stroke-width="0.8999999999999999" />
    <circle cx="150" cy="330" r="14.1" fill="white" stroke="black" stroke-width="0.8999999999999999" />
    <circle cx="180" cy="300" r="14.1" fill="white" stroke="black" stroke-width="0.8999999999999999" />
    <circle cx="210" cy="240" r="14.1" fill="white" stroke="black" stroke-width="0.8999999999999999" />
    <circle cx="210" cy="270" r="14.1" fill="white" stroke="black" stroke-width="0.8999999999999999" />
    <text font-size="12pt" font-family="Arial, sans-serif" text-anchor="middle"
        dominant-baseline="central" x="29.55" y="300.6" fill="white">11</text>
    <text font-size="12pt" font-family="Arial, sans-serif" text-anchor="middle"
        dominant-baseline="central" x="59.1" y="240" fill="black">10</text>
    <text font-size="14pt" font-family="Arial, sans-serif" text-anchor="middle"
        dominant-baseline="central" x="59.55" y="270.6" fill="white">7</text>
    <rect x="44.55" y="284.55" width="30.9" height="30.9" fill="#cc9966" />
    <text font-size="14pt" font-family="Arial, sans-serif" text-anchor="middle"
        dominant-baseline="central" x="59.55" y="300.6" fill="black">2</text>
    <text font-size="14pt" font-family="Arial, sans-serif" text-anchor="middle"
        dominant-baseline="central" x="59.55" y="330.6" fill="white">3</text>
    <text font-size="12pt" font-family="Arial, sans-serif" text-anchor="middle"
        dominant-baseline="central" x="149.1" y="300" fill="black">16</text>
    <text font-size="12pt" font-family="Arial, sans-serif" text-anchor="middle"
        dominant-baseline="central" x="149.1" y="330" fill="black">12</text>
    <text font-size="14pt" font-family="Arial, sans-serif" text-anchor="middle"
        dominant-baseline="central" x="179.55" y="300.6" fill="black">6</text>
    <text font-size="12pt" font-family="Arial, sans-serif" text-anchor="middle"
        dominant-baseline="central" x="209.1" y="240" fill="black">14</text>
    <text font-size="14pt" font-family="Arial, sans-serif" text-anchor="middle"
        dominant-baseline="central" x="209.55" y="270.6" fill="black">4</text>
    <text font-size="14pt" font-family="Arial, sans-serif" text-anchor="middle"
        dominant-baseline="central" x="209.55" y="300.6" fill="white">1</text>
    <rect x="194.55" y="314.55" width="30.9" height="30.9" fill="#cc9966" />
    <text font-size="14pt" font-family="Arial, sans-serif" text-anchor="middle"
        dominant-baseline="central" x="209.55" y="330.6" fill="black">8</text>
    <text font-size="12pt" font-family="Arial, sans-serif" text-anchor="middle"
        dominant-baseline="central" x="209.1" y="360" fill="white">15</text>
    <text font-size="12pt" font-family="Arial, sans-serif" text-anchor="middle"
        dominant-baseline="central" x="239.1" y="240" fill="white">17</text>
    <text font-size="14pt" font-family="Arial, sans-serif" text-anchor="middle"
        dominant-baseline="central" x="239.55" y="270.6" fill="white">5</text>
    <text font-size="14pt" font-family="Arial, sans-serif" text-anchor="middle"
        dominant-baseline="central" x="239.55" y="300.6" fill="white">9</text>
    <text font-size="12pt" font-family="Arial, sans-serif" text-anchor="middle"
        dominant-baseline="central" x="239.1" y="330" fill="white">13</text>
</svg>