<!-- <katagui> {"export_date":"2025-04-12","sgf":"(;FF[4]SZ[19]\nSO[katagui.baduk.club]\nPB[]\nPW[]\nRE[]\nKM[6.5]\nDT[2025-04-12]\n;B[pd];W[dp];B[pp];W[dc];B[ce];W[fd];B[hc];W[ch];B[dg];W[dh];B[fg];W[cd];B[eh];W[dj];B[cg];W[ef];B[eg])"} </katagui> -->
<svg xmlns="http://www.w3.org/2000/svg" width="420" height="420"><rect width="420" height="420" fill="#cc9966"/><line x1="30" y1="30" x2="30" y2="405" stroke="#000" stroke-width="2.1"/><line x1="60" y1="30" x2="60" y2="405" stroke="#000" stroke-width="1.2"/><line x1="90" y1="30" x2="90" y2="405" stroke="#000" stroke-width="1.2"/><line x1="120" y1="30" x2="120" y2="405" stroke="#000" stroke-width="1.2"/><line x1="150" y1="30" x2="150" y2="405" stroke="#000" stroke-width="1.2"/><line x1="180" y1="30" x2="180" y2="405" stroke="#000" stroke-width="1.2"/><line x1="210" y1="30" x2="210" y2="405" stroke="#000" stroke-width="1.2"/><line x1="240" y1="30" x2="240" y2="405" stroke="#000" stroke-width="1.2"/><line x1="270" y1="30" x2="270" y2="405" stroke="#000" stroke-width="1.2"/><line x1="300" y1="30" x2="300" y2="405" stroke="#000" stroke-width="1.2"/><line x1="330" y1="30" x2="330" y2="405" stroke="#000" stroke-width="1.2"/><line x1="360" y1="30" x2="360" y2="405" stroke="#000" stroke-width="1.2"/><line x1="390" y1="30" x2="390" y2="405" stroke="#000" stroke-width="1.2"/><line x1="28.95" y1="30" x2="405" y2="30" stroke="#000" stroke-width="2.1"/><line x1="28.95" y1="60" x2="405" y2="60" stroke="#000" stroke-width="1.2"/><line x1="28.95" y1="90" x2="405" y2="90" stroke="#000" stroke-width="1.2"/><line x1="28.95" y1="120" x2="405" y2="120" stroke="#000" stroke-width="1.2"/><line x1="28.95" y1="150" x2="405" y2="150" stroke="#000" stroke-width="1.2"/><line x1="28.95" y1="180" x2="405" y2="180" stroke="#000" stroke-width="1.2"/><line x1="28.95" y1="210" x2="405" y2="210" stroke="#000" stroke-width="1.2"/><line x1="28.95" y1="240" x2="405" y2="240" stroke="#000" stroke-width="1.2"/><line x1="28.95" y1="270" x2="405" y2="270" stroke="#000" stroke-width="1.2"/><line x1="28.95" y1="300" x2="405" y2="300" stroke="#000" stroke-width="1.2"/><line x1="28.95" y1="330" x2="405" y2="330" stroke="#000" stroke-width="1.2"/><line x1="28.95" y1="360" x2="405" y2="360" stroke="#000" stroke-width="1.2"/><line x1="28.95" y1="390" x2="405" y2="390" stroke="#000" stroke-width="1.2"/><circle cx="120" cy="120" r="3" fill="#000"/><circle cx="120" cy="300" r="3" fill="#000"/><circle cx="300" cy="120" r="3" fill="#000"/><circle cx="300" cy="300" r="3" fill="#000"/><circle cx="90" cy="150" r="14.1" fill="#000000" stroke="black" stroke-width="0.8999999999999999"/><circle cx="90" cy="210" r="14.1" fill="#000000" stroke="black" stroke-width="0.8999999999999999"/><circle cx="120" cy="210" r="14.1" fill="#000000" stroke="black" stroke-width="0.8999999999999999"/><circle cx="150" cy="210" r="14.1" fill="#000000" stroke="black" stroke-width="0.8999999999999999"/><circle cx="150" cy="240" r="14.1" fill="#000000" stroke="black" stroke-width="0.8999999999999999"/><circle cx="180" cy="210" r="14.1" fill="#000000" stroke="black" stroke-width="0.8999999999999999"/><circle cx="240" cy="90" r="14.1" fill="#000000" stroke="black" stroke-width="0.8999999999999999"/><circle cx="90" cy="120" r="14.1" fill="white" stroke="black" stroke-width="0.8999999999999999"/><circle cx="90" cy="240" r="14.1" fill="white" stroke="black" stroke-width="0.8999999999999999"/><circle cx="120" cy="90" r="14.1" fill="white" stroke="black" stroke-width="0.8999999999999999"/><circle cx="120" cy="240" r="14.1" fill="white" stroke="black" stroke-width="0.8999999999999999"/><circle cx="120" cy="300" r="14.1" fill="white" stroke="black" stroke-width="0.8999999999999999"/><circle cx="150" cy="180" r="14.1" fill="white" stroke="black" stroke-width="0.8999999999999999"/><circle cx="180" cy="120" r="14.1" fill="white" stroke="black" stroke-width="0.8999999999999999"/><text font-size="14pt" font-family="Arial, sans-serif" text-anchor="middle" dominant-baseline="central" x="89.55" y="120.6" fill="black">5</text><text font-size="14pt" font-family="Arial, sans-serif" text-anchor="middle" dominant-baseline="central" x="89.55" y="210.6" fill="white">8</text><text font-size="14pt" font-family="Arial, sans-serif" text-anchor="middle" dominant-baseline="central" x="89.55" y="240.6" fill="black">1</text><text font-size="14pt" font-family="Arial, sans-serif" text-anchor="middle" dominant-baseline="central" x="119.55" y="210.6" fill="white">2</text><text font-size="14pt" font-family="Arial, sans-serif" text-anchor="middle" dominant-baseline="central" x="119.55" y="240.6" fill="black">3</text><text font-size="14pt" font-family="Arial, sans-serif" text-anchor="middle" dominant-baseline="central" x="119.55" y="300.6" fill="black">7</text><text font-size="14pt" font-family="Arial, sans-serif" text-anchor="middle" dominant-baseline="central" x="149.55" y="180.6" fill="black">9</text><text font-size="12pt" font-family="Arial, sans-serif" text-anchor="middle" dominant-baseline="central" x="149.1" y="210" fill="white">10</text><text font-size="14pt" font-family="Arial, sans-serif" text-anchor="middle" dominant-baseline="central" x="149.55" y="240.6" fill="white">6</text><text font-size="14pt" font-family="Arial, sans-serif" text-anchor="middle" dominant-baseline="central" x="179.55" y="210.6" fill="white">4</text></svg>