<!-- <katagui>
{"export_date":"2025-04-06","sgf":"(;FF[4]SZ[19]\nSO[katagui.baduk.club]\nPB[]\nPW[]\nRE[]\nKM[6.5]\nDT[2025-04-06]\n;B[pd];W[dp];B[pq];W[dd];B[cq];W[dq];B[cp];W[do];B[bn];W[qo];B[op];W[ql];B[pn];W[qn];B[kq])"}
</katagui> 
<caption>
W can play a or b or tenuki.
</caption>

-->
<svg xmlns="http://www.w3.org/2000/svg" width="600" height="600">
    <rect width="600" height="600" fill="#cc9966" />
    <line x1="30" y1="30" x2="30" y2="570" stroke="#000" stroke-width="2.1" />
    <line x1="60" y1="30" x2="60" y2="570" stroke="#000" stroke-width="1.2" />
    <line x1="90" y1="30" x2="90" y2="570" stroke="#000" stroke-width="1.2" />
    <line x1="120" y1="30" x2="120" y2="570" stroke="#000" stroke-width="1.2" />
    <line x1="150" y1="30" x2="150" y2="570" stroke="#000" stroke-width="1.2" />
    <line x1="180" y1="30" x2="180" y2="570" stroke="#000" stroke-width="1.2" />
    <line x1="210" y1="30" x2="210" y2="570" stroke="#000" stroke-width="1.2" />
    <line x1="240" y1="30" x2="240" y2="570" stroke="#000" stroke-width="1.2" />
    <line x1="270" y1="30" x2="270" y2="570" stroke="#000" stroke-width="1.2" />
    <line x1="300" y1="30" x2="300" y2="570" stroke="#000" stroke-width="1.2" />
    <line x1="330" y1="30" x2="330" y2="570" stroke="#000" stroke-width="1.2" />
    <line x1="360" y1="30" x2="360" y2="570" stroke="#000" stroke-width="1.2" />
    <line x1="390" y1="30" x2="390" y2="570" stroke="#000" stroke-width="1.2" />
    <line x1="420" y1="30" x2="420" y2="570" stroke="#000" stroke-width="1.2" />
    <line x1="450" y1="30" x2="450" y2="570" stroke="#000" stroke-width="1.2" />
    <line x1="480" y1="30" x2="480" y2="570" stroke="#000" stroke-width="1.2" />
    <line x1="510" y1="30" x2="510" y2="570" stroke="#000" stroke-width="1.2" />
    <line x1="540" y1="30" x2="540" y2="570" stroke="#000" stroke-width="1.2" />
    <line x1="570" y1="30" x2="570" y2="570" stroke="#000" stroke-width="2.1" />
    <line x1="28.95" y1="30" x2="571.05" y2="30" stroke="#000" stroke-width="2.1" />
    <line x1="28.95" y1="60" x2="571.05" y2="60" stroke="#000" stroke-width="1.2" />
    <line x1="28.95" y1="90" x2="571.05" y2="90" stroke="#000" stroke-width="1.2" />
    <line x1="28.95" y1="120" x2="571.05" y2="120" stroke="#000" stroke-width="1.2" />
    <line x1="28.95" y1="150" x2="571.05" y2="150" stroke="#000" stroke-width="1.2" />
    <line x1="28.95" y1="180" x2="571.05" y2="180" stroke="#000" stroke-width="1.2" />
    <line x1="28.95" y1="210" x2="571.05" y2="210" stroke="#000" stroke-width="1.2" />
    <line x1="28.95" y1="240" x2="571.05" y2="240" stroke="#000" stroke-width="1.2" />
    <line x1="28.95" y1="270" x2="571.05" y2="270" stroke="#000" stroke-width="1.2" />
    <line x1="28.95" y1="300" x2="571.05" y2="300" stroke="#000" stroke-width="1.2" />
    <line x1="28.95" y1="330" x2="571.05" y2="330" stroke="#000" stroke-width="1.2" />
    <line x1="28.95" y1="360" x2="571.05" y2="360" stroke="#000" stroke-width="1.2" />
    <line x1="28.95" y1="390" x2="571.05" y2="390" stroke="#000" stroke-width="1.2" />
    <line x1="28.95" y1="420" x2="571.05" y2="420" stroke="#000" stroke-width="1.2" />
    <line x1="28.95" y1="450" x2="571.05" y2="450" stroke="#000" stroke-width="1.2" />
    <line x1="28.95" y1="480" x2="571.05" y2="480" stroke="#000" stroke-width="1.2" />
    <line x1="28.95" y1="510" x2="571.05" y2="510" stroke="#000" stroke-width="1.2" />
    <line x1="28.95" y1="540" x2="571.05" y2="540" stroke="#000" stroke-width="1.2" />
    <line x1="28.95" y1="570" x2="571.05" y2="570" stroke="#000" stroke-width="2.1" />
    <circle cx="120" cy="120" r="3" fill="#000" />
    <circle cx="120" cy="300" r="3" fill="#000" />
    <circle cx="120" cy="480" r="3" fill="#000" />
    <circle cx="300" cy="120" r="3" fill="#000" />
    <circle cx="300" cy="300" r="3" fill="#000" />
    <circle cx="300" cy="480" r="3" fill="#000" />
    <circle cx="480" cy="120" r="3" fill="#000" />
    <circle cx="480" cy="300" r="3" fill="#000" />
    <circle cx="480" cy="480" r="3" fill="#000" />
    <circle cx="60" cy="420" r="14.1" fill="#000000" stroke="black"
        stroke-width="0.8999999999999999" />
    <circle cx="90" cy="480" r="14.1" fill="#000000" stroke="black"
        stroke-width="0.8999999999999999" />
    <circle cx="90" cy="510" r="14.1" fill="#000000" stroke="black"
        stroke-width="0.8999999999999999" />
    <circle cx="450" cy="480" r="14.1" fill="#000000" stroke="black"
        stroke-width="0.8999999999999999" />
    <circle cx="480" cy="120" r="14.1" fill="#000000" stroke="black"
        stroke-width="0.8999999999999999" />
    <circle cx="480" cy="510" r="14.1" fill="#000000" stroke="black"
        stroke-width="0.8999999999999999" />
    <circle cx="120" cy="120" r="14.1" fill="white" stroke="black" stroke-width="0.8999999999999999" />
    <circle cx="120" cy="450" r="14.1" fill="white" stroke="black" stroke-width="0.8999999999999999" />
    <circle cx="120" cy="480" r="14.1" fill="white" stroke="black" stroke-width="0.8999999999999999" />
    <circle cx="120" cy="510" r="14.1" fill="white" stroke="black" stroke-width="0.8999999999999999" />
    <circle cx="510" cy="450" r="14.1" fill="white" stroke="black" stroke-width="0.8999999999999999" />
    <circle cx="450" cy="480" r="7.5" stroke="white" stroke-width="1.7999999999999998" fill="none" />
    <rect x="464.55" y="344.55" width="30.9" height="30.9" fill="#cc9966" />
    <text font-size="16pt" font-family="Arial, sans-serif" text-anchor="middle"
        dominant-baseline="central" x="480" y="360" fill="black">b</text>
    <rect x="494.55" y="344.55" width="30.9" height="30.9" fill="#cc9966" />
    <text font-size="16pt" font-family="Arial, sans-serif" text-anchor="middle"
        dominant-baseline="central" x="510" y="360" fill="black">a</text>
</svg>