<!-- <katagui> {"export_date":"2025-05-20","sgf":"(;FF[4]SZ[19]\nSO[katagui.baduk.club]\nPB[]\nPW[]\nRE[]\nKM[6.5]\nDT[2025-05-20]\n;B[pd];W[dp];B[pq];W[dc];B[qn];W[pp];B[oq];W[qq];B[qp];W[qo];B[rp];W[ro];B[po];W[op];B[rn];W[nq];B[qr];W[np];B[so];W[jp])"} </katagui> -->
<svg xmlns="http://www.w3.org/2000/svg" width="390" height="390"><rect width="390" height="390" fill="#cc9966"/><line x1="30" y1="15" x2="30" y2="360" stroke="#000" stroke-width="1.2"/><line x1="60" y1="15" x2="60" y2="360" stroke="#000" stroke-width="1.2"/><line x1="90" y1="15" x2="90" y2="360" stroke="#000" stroke-width="1.2"/><line x1="120" y1="15" x2="120" y2="360" stroke="#000" stroke-width="1.2"/><line x1="150" y1="15" x2="150" y2="360" stroke="#000" stroke-width="1.2"/><line x1="180" y1="15" x2="180" y2="360" stroke="#000" stroke-width="1.2"/><line x1="210" y1="15" x2="210" y2="360" stroke="#000" stroke-width="1.2"/><line x1="240" y1="15" x2="240" y2="360" stroke="#000" stroke-width="1.2"/><line x1="270" y1="15" x2="270" y2="360" stroke="#000" stroke-width="1.2"/><line x1="300" y1="15" x2="300" y2="360" stroke="#000" stroke-width="1.2"/><line x1="330" y1="15" x2="330" y2="360" stroke="#000" stroke-width="1.2"/><line x1="360" y1="15" x2="360" y2="360" stroke="#000" stroke-width="2.1"/><line x1="15" y1="30" x2="361.05" y2="30" stroke="#000" stroke-width="1.2"/><line x1="15" y1="60" x2="361.05" y2="60" stroke="#000" stroke-width="1.2"/><line x1="15" y1="90" x2="361.05" y2="90" stroke="#000" stroke-width="1.2"/><line x1="15" y1="120" x2="361.05" y2="120" stroke="#000" stroke-width="1.2"/><line x1="15" y1="150" x2="361.05" y2="150" stroke="#000" stroke-width="1.2"/><line x1="15" y1="180" x2="361.05" y2="180" stroke="#000" stroke-width="1.2"/><line x1="15" y1="210" x2="361.05" y2="210" stroke="#000" stroke-width="1.2"/><line x1="15" y1="240" x2="361.05" y2="240" stroke="#000" stroke-width="1.2"/><line x1="15" y1="270" x2="361.05" y2="270" stroke="#000" stroke-width="1.2"/><line x1="15" y1="300" x2="361.05" y2="300" stroke="#000" stroke-width="1.2"/><line x1="15" y1="330" x2="361.05" y2="330" stroke="#000" stroke-width="1.2"/><line x1="15" y1="360" x2="361.05" y2="360" stroke="#000" stroke-width="2.1"/><circle cx="90" cy="90" r="3" fill="#000"/><circle cx="90" cy="270" r="3" fill="#000"/><circle cx="270" cy="90" r="3" fill="#000"/><circle cx="270" cy="270" r="3" fill="#000"/><circle cx="240" cy="300" r="14.1" fill="#000000" stroke="black" stroke-width="0.8999999999999999"/><circle cx="270" cy="240" r="14.1" fill="#000000" stroke="black" stroke-width="0.8999999999999999"/><circle cx="270" cy="300" r="14.1" fill="#000000" stroke="black" stroke-width="0.8999999999999999"/><circle cx="300" cy="210" r="14.1" fill="#000000" stroke="black" stroke-width="0.8999999999999999"/><circle cx="300" cy="270" r="14.1" fill="#000000" stroke="black" stroke-width="0.8999999999999999"/><circle cx="300" cy="330" r="14.1" fill="#000000" stroke="black" stroke-width="0.8999999999999999"/><circle cx="330" cy="210" r="14.1" fill="#000000" stroke="black" stroke-width="0.8999999999999999"/><circle cx="330" cy="270" r="14.1" fill="#000000" stroke="black" stroke-width="0.8999999999999999"/><circle cx="360" cy="240" r="14.1" fill="#000000" stroke="black" stroke-width="0.8999999999999999"/><circle cx="90" cy="270" r="14.1" fill="white" stroke="black" stroke-width="0.8999999999999999"/><circle cx="210" cy="270" r="14.1" fill="white" stroke="black" stroke-width="0.8999999999999999"/><circle cx="210" cy="300" r="14.1" fill="white" stroke="black" stroke-width="0.8999999999999999"/><circle cx="240" cy="270" r="14.1" fill="white" stroke="black" stroke-width="0.8999999999999999"/><circle cx="270" cy="270" r="14.1" fill="white" stroke="black" stroke-width="0.8999999999999999"/><circle cx="300" cy="300" r="14.1" fill="white" stroke="black" stroke-width="0.8999999999999999"/><circle cx="90" cy="270" r="7.5" stroke="black" stroke-width="1.2" fill="none"/></svg>