<!-- <katagui> {"export_date":"2025-03-07","sgf":"(;FF[4]SZ[19]\nSO[katagui.baduk.club]\nPB[]\nPW[]\nRE[]\nKM[6.5]\nDT[2025-03-07]\n;B[pd];W[dq];B[qp];W[co];B[oq];W[dd];B[nc];W[qj];B[fc];W[hc];B[fe];W[df];B[id];W[hd];B[he];W[ie];B[ic];W[ib];B[jb];W[gb];B[ia];W[hb];B[kc];W[ge];B[hf];W[gd];B[ce];W[gf];B[de];W[je];B[hg];W[kd];B[jc];W[cd])"} </katagui> -->
<svg xmlns="http://www.w3.org/2000/svg" width="600" height="360"><rect width="600" height="360" fill="#cc9966"/><line x1="30" y1="30" x2="30" y2="345" stroke="#000" stroke-width="2.1"/><line x1="60" y1="30" x2="60" y2="345" stroke="#000" stroke-width="1.2"/><line x1="90" y1="30" x2="90" y2="345" stroke="#000" stroke-width="1.2"/><line x1="120" y1="30" x2="120" y2="345" stroke="#000" stroke-width="1.2"/><line x1="150" y1="30" x2="150" y2="345" stroke="#000" stroke-width="1.2"/><line x1="180" y1="30" x2="180" y2="345" stroke="#000" stroke-width="1.2"/><line x1="210" y1="30" x2="210" y2="345" stroke="#000" stroke-width="1.2"/><line x1="240" y1="30" x2="240" y2="345" stroke="#000" stroke-width="1.2"/><line x1="270" y1="30" x2="270" y2="345" stroke="#000" stroke-width="1.2"/><line x1="300" y1="30" x2="300" y2="345" stroke="#000" stroke-width="1.2"/><line x1="330" y1="30" x2="330" y2="345" stroke="#000" stroke-width="1.2"/><line x1="360" y1="30" x2="360" y2="345" stroke="#000" stroke-width="1.2"/><line x1="390" y1="30" x2="390" y2="345" stroke="#000" stroke-width="1.2"/><line x1="420" y1="30" x2="420" y2="345" stroke="#000" stroke-width="1.2"/><line x1="450" y1="30" x2="450" y2="345" stroke="#000" stroke-width="1.2"/><line x1="480" y1="30" x2="480" y2="345" stroke="#000" stroke-width="1.2"/><line x1="510" y1="30" x2="510" y2="345" stroke="#000" stroke-width="1.2"/><line x1="540" y1="30" x2="540" y2="345" stroke="#000" stroke-width="1.2"/><line x1="570" y1="30" x2="570" y2="345" stroke="#000" stroke-width="2.1"/><line x1="28.95" y1="30" x2="571.05" y2="30" stroke="#000" stroke-width="2.1"/><line x1="28.95" y1="60" x2="571.05" y2="60" stroke="#000" stroke-width="1.2"/><line x1="28.95" y1="90" x2="571.05" y2="90" stroke="#000" stroke-width="1.2"/><line x1="28.95" y1="120" x2="571.05" y2="120" stroke="#000" stroke-width="1.2"/><line x1="28.95" y1="150" x2="571.05" y2="150" stroke="#000" stroke-width="1.2"/><line x1="28.95" y1="180" x2="571.05" y2="180" stroke="#000" stroke-width="1.2"/><line x1="28.95" y1="210" x2="571.05" y2="210" stroke="#000" stroke-width="1.2"/><line x1="28.95" y1="240" x2="571.05" y2="240" stroke="#000" stroke-width="1.2"/><line x1="28.95" y1="270" x2="571.05" y2="270" stroke="#000" stroke-width="1.2"/><line x1="28.95" y1="300" x2="571.05" y2="300" stroke="#000" stroke-width="1.2"/><line x1="28.95" y1="330" x2="571.05" y2="330" stroke="#000" stroke-width="1.2"/><circle cx="120" cy="120" r="3" fill="#000"/><circle cx="120" cy="300" r="3" fill="#000"/><circle cx="300" cy="120" r="3" fill="#000"/><circle cx="300" cy="300" r="3" fill="#000"/><circle cx="480" cy="120" r="3" fill="#000"/><circle cx="480" cy="300" r="3" fill="#000"/><circle cx="180" cy="90" r="14.1" fill="#000000" stroke="black" stroke-width="0.8999999999999999"/><circle cx="180" cy="150" r="14.1" fill="#000000" stroke="black" stroke-width="0.8999999999999999"/><circle cx="240" cy="150" r="14.1" fill="#000000" stroke="black" stroke-width="0.8999999999999999"/><circle cx="240" cy="180" r="14.1" fill="#000000" stroke="black" stroke-width="0.8999999999999999"/><circle cx="270" cy="30" r="14.1" fill="#000000" stroke="black" stroke-width="0.8999999999999999"/><circle cx="270" cy="90" r="14.1" fill="#000000" stroke="black" stroke-width="0.8999999999999999"/><circle cx="270" cy="120" r="14.1" fill="#000000" stroke="black" stroke-width="0.8999999999999999"/><circle cx="300" cy="60" r="14.1" fill="#000000" stroke="black" stroke-width="0.8999999999999999"/><circle cx="330" cy="90" r="14.1" fill="#000000" stroke="black" stroke-width="0.8999999999999999"/><circle cx="420" cy="90" r="14.1" fill="#000000" stroke="black" stroke-width="0.8999999999999999"/><circle cx="480" cy="120" r="14.1" fill="#000000" stroke="black" stroke-width="0.8999999999999999"/><circle cx="120" cy="120" r="14.1" fill="white" stroke="black" stroke-width="0.8999999999999999"/><circle cx="120" cy="180" r="14.1" fill="white" stroke="black" stroke-width="0.8999999999999999"/><circle cx="210" cy="60" r="14.1" fill="white" stroke="black" stroke-width="0.8999999999999999"/><circle cx="210" cy="120" r="14.1" fill="white" stroke="black" stroke-width="0.8999999999999999"/><circle cx="210" cy="150" r="14.1" fill="white" stroke="black" stroke-width="0.8999999999999999"/><circle cx="240" cy="60" r="14.1" fill="white" stroke="black" stroke-width="0.8999999999999999"/><circle cx="240" cy="90" r="14.1" fill="white" stroke="black" stroke-width="0.8999999999999999"/><circle cx="240" cy="120" r="14.1" fill="white" stroke="black" stroke-width="0.8999999999999999"/><circle cx="270" cy="60" r="14.1" fill="white" stroke="black" stroke-width="0.8999999999999999"/><circle cx="270" cy="150" r="14.1" fill="white" stroke="black" stroke-width="0.8999999999999999"/><circle cx="510" cy="300" r="14.1" fill="white" stroke="black" stroke-width="0.8999999999999999"/><circle cx="210" cy="120" r="7.5" stroke="black" stroke-width="1.2" fill="none"/></svg>