<!-- <katagui> {"export_date":"2025-02-22","sgf":"(;FF[4]SZ[19]\nSO[katagui.baduk.club]\nPB[]\nPW[]\nRE[]\nKM[6.5]\nDT[2025-02-22]\n;B[pd];W[dp];B[pp];W[dd];B[fc];W[fq];B[cf];W[df];B[dg];W[ef];B[ce];W[cd];B[ic];W[cj];B[eg];W[ec];B[fd];W[de];B[fg])"} </katagui> -->
<svg xmlns="http://www.w3.org/2000/svg" width="390" height="390"><rect width="390" height="390" fill="#cc9966"/><line x1="30" y1="30" x2="30" y2="375" stroke="#000" stroke-width="2.1"/><line x1="60" y1="30" x2="60" y2="375" stroke="#000" stroke-width="1.2"/><line x1="90" y1="30" x2="90" y2="375" stroke="#000" stroke-width="1.2"/><line x1="120" y1="30" x2="120" y2="375" stroke="#000" stroke-width="1.2"/><line x1="150" y1="30" x2="150" y2="375" stroke="#000" stroke-width="1.2"/><line x1="180" y1="30" x2="180" y2="375" stroke="#000" stroke-width="1.2"/><line x1="210" y1="30" x2="210" y2="375" stroke="#000" stroke-width="1.2"/><line x1="240" y1="30" x2="240" y2="375" stroke="#000" stroke-width="1.2"/><line x1="270" y1="30" x2="270" y2="375" stroke="#000" stroke-width="1.2"/><line x1="300" y1="30" x2="300" y2="375" stroke="#000" stroke-width="1.2"/><line x1="330" y1="30" x2="330" y2="375" stroke="#000" stroke-width="1.2"/><line x1="360" y1="30" x2="360" y2="375" stroke="#000" stroke-width="1.2"/><line x1="28.95" y1="30" x2="375" y2="30" stroke="#000" stroke-width="2.1"/><line x1="28.95" y1="60" x2="375" y2="60" stroke="#000" stroke-width="1.2"/><line x1="28.95" y1="90" x2="375" y2="90" stroke="#000" stroke-width="1.2"/><line x1="28.95" y1="120" x2="375" y2="120" stroke="#000" stroke-width="1.2"/><line x1="28.95" y1="150" x2="375" y2="150" stroke="#000" stroke-width="1.2"/><line x1="28.95" y1="180" x2="375" y2="180" stroke="#000" stroke-width="1.2"/><line x1="28.95" y1="210" x2="375" y2="210" stroke="#000" stroke-width="1.2"/><line x1="28.95" y1="240" x2="375" y2="240" stroke="#000" stroke-width="1.2"/><line x1="28.95" y1="270" x2="375" y2="270" stroke="#000" stroke-width="1.2"/><line x1="28.95" y1="300" x2="375" y2="300" stroke="#000" stroke-width="1.2"/><line x1="28.95" y1="330" x2="375" y2="330" stroke="#000" stroke-width="1.2"/><line x1="28.95" y1="360" x2="375" y2="360" stroke="#000" stroke-width="1.2"/><circle cx="120" cy="120" r="3" fill="#000"/><circle cx="120" cy="300" r="3" fill="#000"/><circle cx="300" cy="120" r="3" fill="#000"/><circle cx="300" cy="300" r="3" fill="#000"/><circle cx="90" cy="150" r="14.1" fill="#000000" stroke="black" stroke-width="0.8999999999999999"/><circle cx="90" cy="180" r="14.1" fill="#000000" stroke="black" stroke-width="0.8999999999999999"/><circle cx="120" cy="210" r="14.1" fill="#000000" stroke="black" stroke-width="0.8999999999999999"/><circle cx="150" cy="210" r="14.1" fill="#000000" stroke="black" stroke-width="0.8999999999999999"/><circle cx="180" cy="90" r="14.1" fill="#000000" stroke="black" stroke-width="0.8999999999999999"/><circle cx="180" cy="120" r="14.1" fill="#000000" stroke="black" stroke-width="0.8999999999999999"/><circle cx="270" cy="90" r="14.1" fill="#000000" stroke="black" stroke-width="0.8999999999999999"/><circle cx="90" cy="120" r="14.1" fill="white" stroke="black" stroke-width="0.8999999999999999"/><circle cx="90" cy="300" r="14.1" fill="white" stroke="black" stroke-width="0.8999999999999999"/><circle cx="120" cy="120" r="14.1" fill="white" stroke="black" stroke-width="0.8999999999999999"/><circle cx="120" cy="150" r="14.1" fill="white" stroke="black" stroke-width="0.8999999999999999"/><circle cx="120" cy="180" r="14.1" fill="white" stroke="black" stroke-width="0.8999999999999999"/><circle cx="150" cy="90" r="14.1" fill="white" stroke="black" stroke-width="0.8999999999999999"/><circle cx="150" cy="180" r="14.1" fill="white" stroke="black" stroke-width="0.8999999999999999"/><rect x="74.55" y="224.55" width="30.9" height="30.9" fill="#cc9966"/><text font-size="16pt" font-family="Arial, sans-serif" text-anchor="middle" dominant-baseline="central" x="90" y="240" fill="black">B</text><circle cx="120" cy="150" r="7.5" stroke="black" stroke-width="1.2" fill="none"/><rect x="164.55" y="194.55" width="30.9" height="30.9" fill="#cc9966"/><text font-size="16pt" font-family="Arial, sans-serif" text-anchor="middle" dominant-baseline="central" x="180" y="210" fill="black">A</text></svg>